<?xml version="1.0" encoding="utf-8"?>
<!-- Generator: Adobe Illustrator 22.0.1, SVG Export Plug-In . SVG Version: 6.00 Build 0)  -->
<svg  version="1.1" id="Layer_1" xmlns="http://www.w3.org/2000/svg" xmlns:xlink="http://www.w3.org/1999/xlink" preserveAspectRatio="xMax meet" x="0px" y="0px"
	 viewBox="0 0 260.9 260.9" style="enable-background:new 0 0 162.9 162.9;" xml:space="preserve">
<style type="text/css">
	.st0{fill:#FFFFFF;}
</style>
<g>
	<polygon class="st0" points="103.5,44 62.3,83.3 103.3,126.4 95.9,133.3 55,90 55,90 48.2,82.8 96.8,36.8 	"/>
	<path class="st0" d="M2,81.4C2,37.5,37.7,1.9,81.4,1.9s79.5,35.7,79.5,79.5c0,43.9-35.7,79.5-79.5,79.5S2,125.3,2,81.4z M9.4,81.4
		c0,39.8,32.4,72.2,72.2,72.2s72.2-32.4,72.2-72.2S121.4,9.3,81.6,9.3C41.8,9.2,9.4,41.6,9.4,81.4z"/>
</g>
</svg>
