<?xml version="1.0" encoding="utf-8"?>
<!-- Generator: Adobe Illustrator 22.0.1, SVG Export Plug-In . SVG Version: 6.00 Build 0)  -->
<svg version="1.1" id="Layer_1" xmlns="http://www.w3.org/2000/svg" xmlns:xlink="http://www.w3.org/1999/xlink" preserveAspectRatio="xMax meet" x="0px" y="0px"
	 viewBox="0 0 260.9 260.9" style="enable-background:new 0 0 162.9 162.9;" xml:space="preserve">
<style type="text/css">
	.st0{fill:#FFFFFF;}
</style>
<g>
	<polygon class="st0" points="59.4,44.1 100.8,83.3 59.8,126.5 67,133.3 108,90.1 108,90.1 114.8,82.9 66.3,36.9 	"/>
	<path class="st0" d="M81.5,161C37.6,161,2,125.3,2,81.5C2,37.6,37.7,2,81.5,2C125.4,2,161,37.7,161,81.5S125.3,161,81.5,161z
		 M81.5,9.3C41.7,9.3,9.3,41.7,9.3,81.5s32.4,72.2,72.2,72.2s72.2-32.4,72.2-72.2C153.6,41.7,121.2,9.3,81.5,9.3z"/>
</g>
</svg>
